<svg width="17" height="24" viewBox="0 0 17 24" fill="none" xmlns="http://www.w3.org/2000/svg">
<g id="logos:figma" clip-path="url(#clip0_2034_172)">
<path id="Vector" d="M4.25 24C6.596 24 8.5 22.208 8.5 20V16H4.25C1.904 16 0 17.792 0 20C0 22.208 1.904 24 4.25 24Z" fill="#0ACF83"/>
<path id="Vector_2" d="M0 12C0 9.792 1.904 8 4.25 8H8.5V16H4.25C1.904 16 0 14.208 0 12Z" fill="#A259FF"/>
<path id="Vector_3" d="M0 4C0 1.792 1.904 0 4.25 0H8.5V8H4.25C1.904 8 0 6.208 0 4Z" fill="#F24E1E"/>
<path id="Vector_4" d="M8.5 0H12.75C15.096 0 17 1.792 17 4C17 6.208 15.096 8 12.75 8H8.5V0Z" fill="#FF7262"/>
<path id="Vector_5" d="M17 12C17 14.208 15.096 16 12.75 16C10.404 16 8.5 14.208 8.5 12C8.5 9.792 10.404 8 12.75 8C15.096 8 17 9.792 17 12Z" fill="#1ABCFE"/>
</g>
<defs>
<clipPath id="clip0_2034_172">
<rect width="17" height="24" fill="white"/>
</clipPath>
</defs>
</svg>
