<svg width="21" height="29" viewBox="0 0 21 29" fill="none" xmlns="http://www.w3.org/2000/svg">
<g id="vscode-icons:file-type-firebase" clip-path="url(#clip0_2034_989)">
<path id="Vector" d="M0.822205 22.2937L0.981579 22.079L8.50033 8.29127L8.51627 8.14537L5.2022 2.12787C5.14153 2.01783 5.0466 1.92901 4.93085 1.87399C4.81509 1.81897 4.68437 1.80053 4.55717 1.82127C4.42998 1.84202 4.31275 1.9009 4.22207 1.98958C4.13139 2.07827 4.07186 2.19227 4.05189 2.31546L0.822205 22.2937Z" fill="#FFC24A"/>
<path id="Vector_2" d="M0.916016 22.1305L1.03602 21.904L8.47695 8.25948L5.17133 2.21842C5.11682 2.11336 5.02855 2.02821 4.91977 1.97571C4.81099 1.92321 4.68753 1.9062 4.56791 1.92723C4.44828 1.94825 4.33892 2.00618 4.25622 2.09233C4.17351 2.17849 4.12191 2.28823 4.10914 2.40511L0.916016 22.1305Z" fill="#FFA712"/>
<path id="Vector_3" d="M10.9326 12.6966L13.4001 10.2497L10.9316 5.69941C10.8773 5.60148 10.7965 5.51963 10.6979 5.46256C10.5992 5.4055 10.4864 5.37537 10.3715 5.37537C10.2565 5.37537 10.1437 5.4055 10.0451 5.46256C9.94643 5.51963 9.86564 5.60148 9.81131 5.69941L8.49225 8.12997V8.33751L10.9326 12.6966Z" fill="#F4BD62"/>
<path id="Vector_4" d="M10.888 12.5969L13.2871 10.2225L10.888 5.80005C10.8488 5.70432 10.7817 5.62161 10.6949 5.5619C10.6081 5.50219 10.5053 5.46803 10.3989 5.46352C10.2925 5.45902 10.1869 5.48437 10.0951 5.53653C10.0032 5.58868 9.92894 5.66541 9.88117 5.75745L8.55555 8.23061L8.51617 8.35658L10.888 12.5969Z" fill="#FFA50E"/>
<path id="Vector_5" d="M0.824219 22.2946L0.896406 22.2239L1.15797 22.1215L10.7767 12.8578L10.8986 12.537L8.49953 8.11633L0.824219 22.2946Z" fill="#F6820C"/>
<path id="Vector_6" d="M11.2397 26.9664L19.9472 22.2729L17.4591 7.47298C17.4412 7.36865 17.394 7.27108 17.3226 7.191C17.2511 7.11092 17.1583 7.05141 17.0541 7.01901C16.95 6.98661 16.8386 6.98257 16.7323 7.00734C16.6259 7.03211 16.5287 7.08473 16.4513 7.15942L0.822205 22.2938L9.47814 26.9655C9.74725 27.1107 10.0503 27.1869 10.3585 27.1869C10.6666 27.1869 10.9697 27.1107 11.2388 26.9655" fill="#FDE068"/>
<path id="Vector_7" d="M19.8676 22.2339L17.4001 7.54539C17.3957 7.4456 17.3608 7.3493 17.2998 7.26868C17.2388 7.18806 17.1545 7.12675 17.0574 7.0925C16.9604 7.05825 16.855 7.0526 16.7546 7.07627C16.6542 7.09994 16.5634 7.15187 16.4935 7.22548L0.916016 22.2656L9.47633 26.8875C9.74329 27.0314 10.0439 27.107 10.3496 27.107C10.6553 27.107 10.9559 27.0314 11.2229 26.8875L19.8676 22.2339Z" fill="#FCCA3F"/>
<path id="Vector_8" d="M11.2397 26.825C10.9706 26.9701 10.6676 27.0463 10.3594 27.0463C10.0512 27.0463 9.74818 26.9701 9.47908 26.825L0.893454 22.223L0.822205 22.2937L9.47814 26.9654C9.74725 27.1106 10.0503 27.1868 10.3585 27.1868C10.6666 27.1868 10.9697 27.1106 11.2388 26.9654L19.9472 22.2729L19.9256 22.146L11.2397 26.825Z" fill="#EEAB37"/>
</g>
<defs>
<clipPath id="clip0_2034_989">
<rect width="20" height="29" fill="white" transform="translate(0.384766)"/>
</clipPath>
</defs>
</svg>
