<svg width="25" height="24" viewBox="0 0 25 24" fill="none" xmlns="http://www.w3.org/2000/svg">
<g id="logos:git-icon" clip-path="url(#clip0_2034_1004)">
<path id="Vector" d="M23.9321 10.9309L13.4535 0.452846C12.8504 -0.150623 11.8717 -0.150623 11.2678 0.452846L9.09189 2.62878L11.8522 5.38906C12.4936 5.17231 13.2292 5.31772 13.7405 5.82903C14.2542 6.34363 14.3986 7.08547 14.1766 7.72897L16.8368 10.3892C17.4804 10.1675 18.223 10.3109 18.737 10.8258C19.4554 11.5439 19.4554 12.7078 18.737 13.4264C18.0184 14.1451 16.8545 14.1451 16.1355 13.4264C15.5951 12.8855 15.4616 12.0919 15.7352 11.4262L13.2544 8.94538L13.2541 15.4738C13.4339 15.5628 13.5982 15.6802 13.7405 15.8217C14.4589 16.5398 14.4589 17.7038 13.7405 18.4229C13.0219 19.1413 11.8574 19.1413 11.1399 18.4229C10.4215 17.7038 10.4215 16.5399 11.1399 15.8218C11.312 15.6495 11.5166 15.5131 11.7418 15.4204V8.8311C11.5163 8.73903 11.3116 8.60254 11.1399 8.42975C10.5955 7.88619 10.4647 7.08753 10.7436 6.41919L8.02258 3.69791L0.837578 10.8824C0.233828 11.4865 0.233828 12.4653 0.837578 13.0689L11.3164 23.5471C11.9197 24.1507 12.8982 24.1507 13.5023 23.5471L23.932 13.1175C24.5356 12.5138 24.5356 11.5344 23.932 10.9309" fill="#DE4C36"/>
</g>
<defs>
<clipPath id="clip0_2034_1004">
<rect width="24" height="24" fill="white" transform="translate(0.384766)"/>
</clipPath>
</defs>
</svg>
