<svg width="44" height="40" viewBox="0 0 44 40" fill="none" xmlns="http://www.w3.org/2000/svg">
<g id="Group">
<path id="Vector" fill-rule="evenodd" clip-rule="evenodd" d="M21.7823 40L29.8037 15.3927H13.7615L21.7825 40H21.7823Z" fill="#E24329"/>
<path id="Vector_2" fill-rule="evenodd" clip-rule="evenodd" d="M21.7824 40L13.761 15.3927H2.51904L21.7826 39.9997L21.7824 40Z" fill="#FC6D26"/>
<path id="Vector_3" fill-rule="evenodd" clip-rule="evenodd" d="M2.51914 15.3927L0.081337 22.8705C-0.14086 23.5527 0.102566 24.3 0.684831 24.7213L21.7824 40L2.51914 15.3926V15.3927Z" fill="#FCA326"/>
<path id="Vector_4" fill-rule="evenodd" clip-rule="evenodd" d="M2.51916 15.3927H13.7611L8.92962 0.571944C8.68112 -0.190648 7.59879 -0.190648 7.35041 0.571944L2.51904 15.3927H2.51916Z" fill="#E24329"/>
<path id="Vector_5" fill-rule="evenodd" clip-rule="evenodd" d="M21.7823 40L29.8037 15.3927H41.0457L21.7826 39.9997L21.7823 40Z" fill="#FC6D26"/>
<path id="Vector_6" fill-rule="evenodd" clip-rule="evenodd" d="M41.0456 15.3927L43.4834 22.8705C43.7056 23.5527 43.4621 24.3 42.8799 24.7213L21.7823 40L41.0456 15.3926V15.3927Z" fill="#FCA326"/>
<path id="Vector_7" fill-rule="evenodd" clip-rule="evenodd" d="M41.0455 15.3927H29.8036L34.6351 0.571944C34.8837 -0.190648 35.966 -0.190648 36.2145 0.571944L41.0457 15.3927H41.0455Z" fill="#E24329"/>
</g>
</svg>
