<svg width="24" height="24" viewBox="0 0 24 24" fill="none" xmlns="http://www.w3.org/2000/svg">
<g id="Group 2053">
<path id="Vector" d="M21.8243 0H2.17566C0.974063 0 0 0.974063 0 2.17566V21.8243C0 23.0259 0.974063 24 2.17566 24H21.8243C23.0259 24 24 23.0259 24 21.8243V2.17566C24 0.974063 23.0259 0 21.8243 0Z" fill="#DC395F"/>
<path id="Vector_2" d="M8.02078 7.55108C8.81859 7.55108 9.48693 6.92577 9.48693 6.1062C9.48693 5.28721 8.81859 4.66199 8.02078 4.66199C7.22297 4.66199 6.55481 5.28721 6.55481 6.1062C6.55481 6.92567 7.22297 7.55108 8.02078 7.55108Z" fill="white"/>
<path id="Vector_3" d="M4.98085 15.2873C4.8947 15.6539 4.85148 16.0497 4.85148 16.3725C4.85148 17.6448 5.54138 18.4894 7.00754 18.4894C8.22348 18.4894 9.20926 17.7674 9.91904 16.6014L9.48563 18.3407H11.9002L13.2802 12.8058C13.6252 11.4044 14.2935 10.677 15.3069 10.677C16.1047 10.677 16.6005 11.1732 16.6005 11.9922C16.6005 12.2294 16.5789 12.4879 16.4927 12.7683L15.7811 15.3124C15.6733 15.679 15.6304 16.0457 15.6304 16.3904C15.6304 17.5982 16.3417 18.4816 17.8294 18.4816C19.1015 18.4816 20.1147 17.6627 20.6754 15.7006L19.7268 15.3344C19.2524 16.6489 18.8427 16.8866 18.5193 16.8866C18.1959 16.8866 18.0233 16.6711 18.0233 16.2402C18.0233 16.0461 18.0667 15.8308 18.1312 15.5714L18.8213 13.0929C18.9937 12.5109 19.0584 11.9948 19.0584 11.5206C19.0584 9.66642 17.9372 8.69873 16.5789 8.69873C15.3069 8.69873 14.0132 9.84614 13.3665 11.0537L13.8407 8.88623H10.1541L9.63657 10.7954H11.3615L10.2993 15.0479C9.4652 16.902 7.93304 16.9321 7.74076 16.8891C7.42501 16.8179 7.22307 16.6979 7.22307 16.2877C7.22307 16.051 7.2662 15.7109 7.37401 15.301L8.9912 8.88623H4.8947L4.3772 10.7954H6.08035L4.98095 15.2873" fill="white"/>
</g>
</svg>
