<svg width="40" height="40" viewBox="0 0 40 40" fill="none" xmlns="http://www.w3.org/2000/svg">
<g id="Frame 21">
<path id="Union" fill-rule="evenodd" clip-rule="evenodd" d="M6.37206 8.02526L7.53278 6.61001L7.55785 6.73421C7.88532 8.3563 8.05026 10.0065 8.05026 11.6607V13.2746L8.36147 12.2469C8.66918 11.2308 8.79771 10.1697 8.74143 9.11028L8.56775 5.84102L11.4139 3.0214L11.8964 2.60319C12.9365 1.70156 14.197 1.08578 15.5523 0.817261C16.7541 0.579147 17.9849 0.519517 19.2044 0.640329L19.9524 0.714432L20.8137 0.856649C21.1572 0.913353 21.3472 1.2831 21.1915 1.5916L20.7575 2.4516C20.3982 3.16345 20.2111 3.9484 20.2111 4.74428V5.50848C20.2111 5.89958 20.2596 6.28921 20.3553 6.66864L20.4608 7.08677C20.635 7.77713 21.0216 8.39676 21.567 8.85987C22.1948 9.39294 22.9943 9.68596 23.8211 9.68596H24.0923L23.5748 10.4549L23.4994 10.567C23.2111 10.9954 23.0573 11.4987 23.0573 12.0135C23.0573 12.6719 23.2308 13.319 23.5605 13.8906L23.7453 14.211C23.9756 14.6103 24.2586 14.9773 24.5868 15.3024L25.0708 15.7819C25.6157 16.3217 26.2984 16.7047 27.0459 16.8898C27.6566 17.0411 28.2936 17.0561 28.9109 16.9338L29.2671 16.8632L29.6761 17.9436C29.9181 18.583 30.2955 19.1637 30.783 19.6465C31.15 20.0101 31.5737 20.3127 32.0379 20.5426L33.9245 21.4771L31.2424 23.521C30.7902 23.8656 30.2922 24.1469 29.7625 24.3568L27.9734 25.0657H28.7825C29.4462 25.0657 30.1056 24.9597 30.7353 24.7518C31.1344 24.62 31.5121 24.4317 31.8567 24.1927L33.2563 23.2221C33.7009 22.9138 34.1175 22.5676 34.5012 22.1874L35.0666 21.6273C35.1637 21.5311 35.2953 21.4771 35.4325 21.4771H36.594C36.8779 21.4771 37.1554 21.3939 37.3916 21.2379C37.6616 21.0596 37.9787 20.9645 38.3032 20.9645H38.5382C38.7052 20.9645 38.8406 21.0986 38.8406 21.2641V21.9898V23.9865C38.8406 24.702 38.7326 25.4134 38.5202 26.0972L38.0416 27.6381C37.8848 28.1432 37.6721 28.6295 37.4075 29.0883L35.7357 31.9866L33.7849 34.4989C33.3627 35.0428 32.8639 35.5238 32.3037 35.9274L31.0348 36.8416C30.5555 37.1869 29.9898 37.3953 29.3992 37.4441L27.8432 37.5725C27.442 37.6057 27.0873 37.8436 26.9073 38.2003C26.764 38.4841 26.4942 38.6846 26.179 38.7414L23.8335 39.1638L20.7286 39.4202H19.0275C18.2666 39.4202 17.5082 39.3346 16.7668 39.1651C15.2734 38.8237 13.8262 38.3081 12.4554 37.6291L11.8875 37.3478C10.8832 36.8503 9.91711 36.2803 8.99718 35.6423L7.79152 34.8062L7.14204 34.2272C5.86146 33.0854 4.80859 31.7156 4.03811 30.189C3.43983 29.0037 3.04938 27.7261 2.88345 26.411L2.61667 24.2967L3.00854 24.8144C3.26326 25.1508 3.56872 25.4465 3.91418 25.6909L5.2041 26.6037L5.03309 26.1802C4.80273 25.6096 4.51319 25.0643 4.16913 24.5531L2.99483 23.3897C2.24045 22.6424 1.71325 21.7 1.47336 20.6702L1.25219 19.7208C1.1285 19.1898 1.1285 18.6379 1.25219 18.1069L1.75231 15.9599C1.8109 15.7084 1.89671 15.4639 2.00824 15.2306L2.67364 13.839C3.66703 11.7614 4.90874 9.80948 6.37206 8.02526ZM13.6168 7.98594C13.3915 7.29459 13.5398 6.50812 14.0684 5.93792L14.3709 5.61161L14.4484 5.53483C15.2384 4.75213 16.2604 4.24015 17.365 4.07363C18.1452 3.9929 18.8473 4.54529 18.9446 5.31647L18.9511 5.36759C19.0023 5.77336 18.9987 6.18408 18.9403 6.58889L18.8849 6.97306C18.8088 7.50069 18.6222 8.00672 18.3371 8.45869L18.0527 8.90936C17.6938 9.47828 17.0644 9.8239 16.3872 9.82393C16.0842 9.82395 15.7853 9.75452 15.5139 9.62111C15.5274 9.64276 15.5407 9.66438 15.5538 9.68597C15.8019 10.0956 16.7329 10.3726 17.365 10.455C17.5643 10.4809 17.7152 10.4905 17.8542 10.4994C18.1559 10.5186 18.402 10.5342 18.9682 10.7063C18.5161 10.7959 17.8012 10.8631 17.1113 10.7732L17.0879 10.7701C16.4091 10.6817 15.4049 10.551 15.0363 9.9423L15.0005 9.88298C14.8248 9.59177 14.6277 9.26512 14.3173 8.98081C14.27 8.94399 14.2243 8.90513 14.1803 8.86434C14.0589 8.76873 13.9219 8.67975 13.7651 8.60081L13.5771 8.50599C12.8419 8.13486 11.5701 7.4929 11.1552 7.37901C11.2868 7.41515 11.5059 7.46176 11.7694 7.51782C12.3222 7.63542 13.0704 7.79459 13.6168 7.98594ZM19.6937 21.9582V22.2419C19.6937 22.5901 19.8333 22.924 20.0818 23.1702C20.3303 23.4164 20.6673 23.5547 21.0188 23.5547H21.353C21.6242 23.5547 21.893 23.5034 22.1448 23.4036L22.315 23.3362C22.7985 23.1446 23.212 22.8122 23.5008 22.383L23.6695 22.1323C23.9402 21.73 24.0385 21.2377 23.9428 20.7636C23.8716 20.4107 23.6965 20.0866 23.4396 19.8321L23.3474 19.7408C22.996 19.3927 22.5194 19.1971 22.0223 19.1971C21.5253 19.1971 21.0487 19.3927 20.6972 19.7408L20.4987 19.9375C20.1425 20.2904 19.8997 20.7399 19.8009 21.2293L19.7328 21.5664C19.7068 21.6954 19.6937 21.8266 19.6937 21.9582ZM15.295 35.718V35.8274C15.295 36.1755 15.4347 36.5094 15.6832 36.7556C15.9317 37.0018 16.2687 37.1401 16.6201 37.1401H16.9544C17.2256 37.1401 17.4944 37.0889 17.7462 36.9891L18.1832 36.8159C18.4942 36.6927 18.765 36.487 18.966 36.2216C19.2655 35.826 19.3885 35.3262 19.3064 34.8384L19.2923 34.7543C19.2178 34.3113 18.9692 33.9104 18.6065 33.6409C18.307 33.4184 17.9388 33.2952 17.5643 33.2952C17.1054 33.2952 16.6652 33.4758 16.3406 33.7973L16.1039 34.0319C15.9109 34.223 15.7503 34.4438 15.6283 34.6856L15.4631 35.0129C15.3526 35.2318 15.295 35.4733 15.295 35.718ZM7.87207 23.8302L8.00565 23.4314C8.03533 23.3428 8.07139 23.2564 8.11354 23.1729C8.28033 22.8424 8.53537 22.5706 8.84441 22.3822C7.27912 22.5719 6.44894 23.2687 6.19976 23.6636C6.70284 22.8662 8.09194 21.3687 11.4767 21.9975C11.5866 22.0247 11.739 22.0257 11.9335 21.9933C12.346 21.9248 12.862 21.7216 13.3645 21.475C13.8627 21.2305 14.3282 20.9532 14.6341 20.7512C14.3899 21.2237 14.0743 21.6988 13.5942 21.9344C13.235 22.1106 12.8493 22.2758 12.4831 22.3872C13.346 23.1782 14.4237 23.6668 15.4633 23.9537C16.6343 24.2768 17.7365 24.3382 18.3835 24.2973C18.2321 24.3069 18.0478 24.328 17.8393 24.3519C17.0796 24.439 16.0004 24.5628 15.0363 24.2967C14.2826 24.0888 13.611 23.8366 12.9706 23.4229C12.9987 23.5586 13.0108 23.6975 13.0064 23.8367L13.0033 23.9326C12.9801 24.6605 12.6033 25.3325 11.9916 25.7364L11.8886 25.8045C11.5761 26.0108 11.2209 26.1453 10.8492 26.1979L10.1829 26.2922C9.80278 26.346 9.41508 26.2999 9.05857 26.1587L8.94248 26.1127C8.53358 25.9506 8.19631 25.6496 7.99113 25.2636C7.75628 24.8217 7.71329 24.3041 7.87207 23.8302ZM29.4623 28.931L29.6395 28.931C29.9757 28.931 30.3072 29.0085 30.6079 29.1575L31.349 29.5245C31.5837 29.6407 31.7984 29.7943 31.9839 29.9782C32.5769 30.5661 32.8094 31.3978 32.6467 32.1757C33.1754 31.7763 33.7304 31.4291 34.442 31.2176C33.8395 31.6819 33.3756 32.1517 32.9313 32.6018C32.1408 33.4024 31.4124 34.1402 30.0763 34.6716C29.8698 34.7582 29.6577 34.8325 29.4411 34.8938L29.4257 34.8981C29.3164 34.9313 29.2035 34.9633 29.0867 34.994L28.7497 35.0894L28.6973 35.1024C28.6015 35.1262 28.5057 35.1417 28.4107 35.1496C27.9329 35.2449 27.3985 35.323 26.7962 35.3814C24.5402 36.5076 22.4337 37.6315 21.1136 38.3623C21.5777 38.1054 22.0958 37.7254 22.6754 37.3005C23.5123 36.6867 24.4774 35.9791 25.5923 35.4127C25.3111 35.4347 24.9674 35.4273 24.6259 35.42L24.6252 35.42C24.4554 35.4163 24.2861 35.4127 24.1253 35.4127C23.8665 35.4127 22.6209 35.4506 22.2001 35.5882C22.6417 35.4439 23.3902 35.2379 24.2126 35.0845C25.0048 34.9368 25.8839 34.8343 26.6287 34.891C26.84 34.8757 27.0429 34.8559 27.238 34.832C26.8293 34.5461 26.5411 34.0912 26.4915 33.5503C26.4449 33.0429 26.4935 32.5312 26.6348 32.0413L26.6525 31.9799C26.8413 31.3253 27.1595 30.7143 27.5887 30.1825L28.059 29.5996C28.3999 29.1771 28.9163 28.9311 29.4623 28.931ZM7.04573 15.5918L6.99831 15.7333C6.93906 15.9102 6.95511 16.1033 7.04274 16.2682C7.11931 16.4123 7.24517 16.5246 7.39775 16.5851L7.44107 16.6022C7.57411 16.6549 7.71878 16.6721 7.86062 16.652L8.10926 16.6169C8.24799 16.5972 8.38052 16.5471 8.49712 16.47L8.53557 16.4447C8.76382 16.2939 8.90445 16.0432 8.9131 15.7715L8.91383 15.7489C8.91693 15.6514 8.90025 15.5542 8.86478 15.4632C8.76714 15.2128 8.53845 15.0358 8.26954 15.0025L8.13027 14.9853C8.00061 14.9692 7.86902 14.9793 7.74339 15.0148L7.61497 15.0512C7.38747 15.1155 7.19769 15.2716 7.09187 15.4812C7.07385 15.5169 7.05843 15.5539 7.04573 15.5918ZM20.469 12.3079C20.4384 12.7265 19.7952 13.7335 19.1572 14.0969C18.4737 14.4863 17.1833 14.4487 15.0363 14.0436C17.365 14.8126 18.5763 15.0192 19.4151 14.5414C20.2673 14.0559 20.4699 13.5309 20.4699 12.7619L20.469 12.3079ZM20.469 12.3079C20.4705 12.2868 20.4705 12.2672 20.4688 12.2493L20.469 12.3079ZM21.0147 29.2452C21.3453 29.0331 21.6278 28.7546 21.8702 28.4471C19.718 29.9977 17.9096 29.0877 17.2892 28.4731C17.5106 28.9324 17.7818 29.3856 18.2011 29.6796C18.7775 30.0837 19.5324 30.1961 21.0147 29.2452ZM6.15913 29.9648C6.13172 30.3639 6.11344 30.63 6.14944 30.9169C6.15792 30.9845 6.16663 31.0539 6.177 31.1257C6.21111 31.3623 6.26496 31.619 6.40546 31.8881C6.54627 32.1578 6.76601 32.4249 7.11242 32.6995C7.71221 33.1748 8.42027 33.3468 9.05801 33.5016L9.05859 33.5018L9.05915 33.5019C9.16697 33.5281 9.27277 33.5538 9.37571 33.5804C9.53567 33.6217 9.69495 33.6552 9.85471 33.6889C10.4227 33.8083 10.9968 33.9291 11.6292 34.4078C11.0569 33.5573 10.1879 33.294 9.42882 33.0978C9.31268 33.0678 9.19818 33.0397 9.08543 33.012C8.44522 32.8548 7.93912 32.6981 7.43569 32.2991C7.13524 32.061 6.96687 31.8475 6.8651 31.6526C6.76304 31.4571 6.71985 31.2652 6.68928 31.0532C6.68077 30.9943 6.67338 30.9331 6.66575 30.87C6.61898 30.4833 6.4978 30.1923 6.18733 29.5259C6.17801 29.6899 6.16808 29.8345 6.15913 29.9648ZM14.163 28.3255C14.0686 28.2521 13.9739 28.1786 13.8788 28.1063C13.4307 27.7659 12.9053 27.4964 12.4489 27.6056C12.9353 27.4892 13.3876 27.4669 13.8015 27.5806C14.4831 27.7679 14.8706 28.4365 15.1984 29.0574C14.8319 28.8451 14.4974 28.5852 14.163 28.3255ZM17.7886 17.8595C17.3945 17.7021 17.0003 17.5445 16.5887 17.4415C17.0778 17.9477 17.6376 18.4833 18.3449 18.4755C18.7744 18.4708 19.2026 18.3249 19.6372 18.0792C19.2293 18.3098 18.649 18.1955 18.1232 17.9919C18.0116 17.9487 17.9004 17.9042 17.7892 17.8598L17.7886 17.8595ZM13.4838 12.2493C13.3194 12.575 13.0592 12.8102 12.7998 13.0446C12.526 13.292 12.2532 13.5385 12.0953 13.8896C12.0409 14.0104 11.978 14.162 11.9031 14.3523C11.9031 14.0912 11.8614 13.8408 11.8223 13.6058C11.8089 13.5252 11.7957 13.4462 11.7847 13.3693C11.6655 12.539 12.6373 12.2493 13.4838 12.2493ZM12.7754 36.6446C12.4496 36.6058 12.1579 36.5711 11.9314 36.2919C12.6516 35.8511 13.5862 35.6672 13.7491 36.4901C13.7928 36.7109 13.8554 36.952 14.0013 37.1861C13.6021 36.8881 13.3754 36.7591 13.2245 36.7198C13.07 36.6797 12.9194 36.6618 12.7754 36.6446ZM21.6605 2.86724L21.6612 2.86483C21.6964 2.74327 21.7309 2.62438 21.7635 2.50876C21.3204 5.84104 23.2298 8.23345 24.351 8.66066C20.1921 7.93359 21.0449 4.9913 21.6605 2.86724ZM24.8685 9.68598C24.1785 10.6259 23.5754 12.4423 24.8685 14.0436C25.8867 15.3045 26.6544 15.573 29.6355 15.3373C29.6944 15.3366 29.7444 15.3325 29.7845 15.3252C29.7343 15.3294 29.6846 15.3334 29.6355 15.3373C28.9986 15.3443 27.3245 14.9387 25.9034 13.5309C24.2915 11.934 24.5664 10.455 24.8685 9.68598ZM37.2881 20.1955C34.4419 20.4518 29.7846 20.1955 30.5608 15.5816C30.6723 15.7657 30.7785 15.9816 30.8947 16.2178C31.5872 17.6258 32.6352 19.7565 37.2881 20.1955Z" fill="#B55119"/>
</g>
</svg>
