<svg width="24" height="24" viewBox="0 0 24 24" fill="none" xmlns="http://www.w3.org/2000/svg">
<g id="flat-color-icons:paid">
<path id="Vector" d="M12.7 2.8C12.3 2.4 11.7 2.4 11.3 2.8L5.3 8.8C4.9 9.2 4.9 9.8 5.3 10.2C5.5 10.4 5.75 10.5 6 10.5C6.25 10.5 6.5 10.4 6.7 10.2L12.7 4.2C13.1 3.8 13.1 3.2 12.7 2.8Z" fill="#2E7D32"/>
<path id="Vector_2" d="M18.7 8.8L12.7 2.8C12.3 2.4 11.7 2.4 11.3 2.8C10.9 3.2 10.9 3.8 11.3 4.2L17.3 10.2C17.5 10.4 17.75 10.5 18 10.5C18.25 10.5 18.5 10.4 18.7 10.2C19.1 9.8 19.1 9.2 18.7 8.8Z" fill="#2E7D32"/>
<path id="Vector_3" d="M18.7 20.5H5.3C4.8 20.5 4.4 20.15 4.3 19.7L2.5 10.5H21.5L19.65 19.7C19.55 20.15 19.15 20.5 18.7 20.5Z" fill="#388E3C"/>
<path id="Vector_4" d="M21.5 11.5H2.5C1.95 11.5 1.5 11.05 1.5 10.5V9.5C1.5 8.95 1.95 8.5 2.5 8.5H21.5C22.05 8.5 22.5 8.95 22.5 9.5V10.5C22.5 11.05 22.05 11.5 21.5 11.5Z" fill="#4CAF50"/>
<path id="Vector_5" d="M15.4 12.4L11.45 16.35L9.6 14.45L8.5 15.55L11.45 18.5L16.5 13.45L15.4 12.4Z" fill="#DCEDC8"/>
</g>
</svg>
